<?xml version="1.0" encoding="utf-8"?>
<!-- Generator: Adobe Illustrator 27.9.4, SVG Export Plug-In . SVG Version: 9.03 Build 54784)  -->
<svg version="1.1" id="Layer_1" xmlns="http://www.w3.org/2000/svg" xmlns:xlink="http://www.w3.org/1999/xlink" x="0px" y="0px"
	 viewBox="0 0 552.8 205.3" style="enable-background:new 0 0 552.8 205.3;" xml:space="preserve">
<style type="text/css">
	.st0{fill:#A5B3CE;}
	.st1{fill:#FFFFFF;}
	.st2{clip-path:url(#SVGID_00000137118533362375834520000007994794309066730631_);}
	.st3{clip-path:url(#SVGID_00000085244965309590449390000010914935629798233522_);}
	.st4{clip-path:url(#SVGID_00000018238174983555650480000000232877898009301912_);}
	
		.st5{clip-path:url(#SVGID_00000159429968807195141590000008950148531917175184_);fill:#FFFFFF;stroke:#000000;stroke-width:3.9999;stroke-miterlimit:9.9996;}
	
		.st6{clip-path:url(#SVGID_00000125574357878011794610000010594879905737185190_);fill:none;stroke:#000000;stroke-width:4;stroke-miterlimit:10;}
	.st7{fill:none;stroke:#000000;stroke-width:3.9999;stroke-miterlimit:9.9996;}
	
		.st8{clip-path:url(#SVGID_00000119118218564092107290000003172789624051879068_);fill:#FFFFFF;stroke:#000000;stroke-width:3.9999;stroke-miterlimit:9.9996;}
	
		.st9{clip-path:url(#SVGID_00000068677618731616025960000010428849164118909620_);fill:none;stroke:#000000;stroke-width:4;stroke-miterlimit:10;}
	.st10{fill:none;stroke:#000000;stroke-width:4;stroke-miterlimit:10;}
</style>
<path class="st0" d="M282.2,64.8l26.3-1.7c0.6,4.3,1.7,7.5,3.5,9.8c2.9,3.6,6.9,5.4,12.2,5.4c3.9,0,7-0.9,9.1-2.8
	c2-1.5,3.2-3.9,3.2-6.4c0-2.4-1.1-4.7-3-6.2c-2-1.8-6.7-3.6-14.1-5.2c-12.1-2.7-20.8-6.3-25.9-10.9c-5.1-4.3-8-10.6-7.8-17.3
	c0-4.6,1.4-9.2,4-13c3-4.3,7.1-7.7,12-9.6c5.3-2.3,12.7-3.5,22-3.5c11.4,0,20.1,2.1,26.1,6.4c6,4.2,9.6,11,10.7,20.3l-26,1.5
	c-0.7-4-2.1-6.9-4.4-8.8s-5.3-2.8-9.2-2.8c-3.2,0-5.6,0.7-7.2,2c-1.5,1.2-2.5,3-2.4,5c0,1.5,0.8,2.9,2,3.8c1.3,1.2,4.4,2.3,9.3,3.3
	c12.1,2.6,20.7,5.2,26,7.9s9.1,6,11.4,9.9c2.4,4,3.6,8.6,3.5,13.3c0,5.6-1.6,11.2-4.8,15.9c-3.3,4.9-7.9,8.7-13.3,11
	c-5.7,2.5-12.9,3.8-21.5,3.8c-15.2,0-25.7-2.9-31.6-8.8S282.9,73.8,282.2,64.8z M3.1,94.4V5h46.1c8.5,0,15.1,0.7,19.6,2.2
	c4.4,1.4,8.3,4.3,10.9,8.2c2.9,4.3,4.3,9.3,4.2,14.5c0.3,8.8-4.2,17.2-11.9,21.6c-3,1.7-6.3,2.9-9.7,3.5c2.5,0.7,5,1.9,7.2,3.3
	c1.7,1.4,3.1,3,4.4,4.7c1.5,1.7,2.8,3.6,3.9,5.6l13.4,25.9H59.8L45,67c-1.9-3.5-3.5-5.8-5-6.9c-2-1.4-4.4-2.1-6.8-2.1h-2.4v36.3
	L3.1,94.4L3.1,94.4z M30.8,41.2h11.7c2.5-0.2,4.9-0.6,7.3-1.2c1.8-0.3,3.4-1.3,4.5-2.8c2.7-3.6,2.3-8.7-1-11.8
	c-1.8-1.5-5.3-2.3-10.3-2.3H30.8V41.2z M-3.2,171l26.3-1.7c0.6,4.3,1.7,7.5,3.5,9.8c2.8,3.6,6.9,5.5,12.2,5.5c3.9,0,7-0.9,9.1-2.8
	c2-1.6,3.2-3.9,3.2-6.4c0-2.4-1.1-4.7-3-6.2c-2-1.8-6.7-3.6-14.2-5.2c-12.1-2.7-20.8-6.3-25.9-10.9c-5.1-4.3-8-10.6-7.8-17.3
	c0-4.6,1.4-9.2,4-13c3-4.3,7.1-7.7,12-9.6c5.3-2.3,12.7-3.5,22-3.5c11.4,0,20.1,2.1,26.1,6.4s9.5,11,10.6,20.3l-26,1.5
	c-0.7-4-2.1-6.9-4.4-8.8c-2.2-1.9-5.3-2.8-9.2-2.7c-3.2,0-5.6,0.7-7.2,2.1c-1.6,1.2-2.5,3-2.4,5c0,1.5,0.8,2.9,2,3.8
	c1.3,1.2,4.4,2.3,9.3,3.3c12.1,2.6,20.7,5.2,26,7.9s9.1,6,11.4,9.9c2.4,4,3.6,8.6,3.6,13.2c0,5.6-1.7,11.1-4.8,15.8
	c-3.3,4.9-7.9,8.7-13.3,11c-5.7,2.5-12.9,3.8-21.5,3.8c-15.2,0-25.7-2.9-31.6-8.8C0.9,187.4-2.4,180-3.2,171L-3.2,171z"/>
<path class="st0" d="M133,167.2l24.2,7.3c-1.3,6.1-4,11.9-7.7,17c-3.4,4.5-7.9,8-13,10.3c-5.2,2.3-11.8,3.5-19.8,3.5
	c-9.7,0-17.7-1.4-23.8-4.2c-6.2-2.8-11.5-7.8-16-14.9c-4.5-7.1-6.7-16.2-6.7-27.3c0-14.8,3.9-26.2,11.8-34.1s19-11.9,33.4-11.9
	c11.3,0,20.1,2.3,26.6,6.8c6.4,4.6,11.2,11.6,14.4,21l-24.4,5.4c-0.6-2.1-1.5-4.2-2.7-6c-1.5-2.1-3.4-3.7-5.7-4.9
	c-2.3-1.2-4.9-1.7-7.5-1.7c-6.3,0-11.1,2.5-14.4,7.6c-2.5,3.7-3.8,9.6-3.8,17.6c0,9.9,1.5,16.7,4.5,20.4s7.2,5.5,12.7,5.5
	c5.3,0,9.3-1.5,12-4.4C129.8,177.1,131.8,172.8,133,167.2L133,167.2z M189.5,114.4h27.6v31.3h30.2v-31.3h27.8v89.4h-27.8v-36.2
	h-30.2v36.2h-27.6C189.5,203.8,189.5,114.4,189.5,114.4z"/>
<path class="st0" d="M268.1,155.9c0-14.6,4.1-26,12.2-34.1s19.5-12.2,34-12.2c14.9,0,26.3,4,34.4,12s12.1,19.2,12.1,33.6
	c0,10.5-1.8,19-5.3,25.7c-3.4,6.6-8.7,12-15.2,15.6c-6.7,3.7-15,5.6-24.9,5.6c-10.1,0-18.4-1.6-25-4.8c-6.8-3.4-12.4-8.7-16.1-15.2
	C270.2,175.1,268.1,166.4,268.1,155.9z M295.7,156c0,9,1.7,15.5,5,19.5c3.3,3.9,7.9,5.9,13.7,5.9c5.9,0,10.5-1.9,13.8-5.8
	s4.9-10.8,4.9-20.8c0-8.4-1.7-14.6-5.1-18.4c-3.4-3.9-8-5.8-13.8-5.8c-5.1-0.2-10,2-13.4,5.9S295.7,146.9,295.7,156L295.7,156z
	 M389.1,155.9c0-14.6,4.1-26,12.2-34.1s19.5-12.2,34-12.2c14.9,0,26.4,4,34.4,12s12.1,19.2,12.1,33.6c0,10.5-1.8,19-5.3,25.7
	c-3.4,6.6-8.7,12-15.2,15.6c-6.7,3.7-15,5.6-24.9,5.6c-10.1,0-18.4-1.6-25-4.8c-6.8-3.4-12.4-8.7-16.1-15.2
	C391.2,175.1,389.1,166.4,389.1,155.9z M416.7,156c0,9,1.7,15.5,5,19.5c3.3,3.9,7.9,5.9,13.7,5.9c5.9,0,10.5-1.9,13.8-5.8
	c3.3-3.9,4.9-10.8,4.9-20.8c0-8.4-1.7-14.6-5.1-18.4c-3.4-3.9-8-5.8-13.8-5.8c-5.1-0.2-10.1,2-13.4,5.9
	C418.4,140.4,416.7,146.9,416.7,156L416.7,156z"/>
<path class="st0" d="M482.1,114.4h27.6v67.4h43.1v22H482v-89.4H482.1z"/>
<ellipse transform="matrix(0.7986 -0.6018 0.6018 0.7986 43.8091 266.744)" class="st1" cx="420.5" cy="67.9" rx="63" ry="51.8"/>
<g>
	<g>
		<defs>
			
				<ellipse id="SVGID_1_" transform="matrix(0.7986 -0.6018 0.6018 0.7986 43.8094 266.7443)" cx="420.5" cy="67.9" rx="63" ry="51.8"/>
		</defs>
		<clipPath id="SVGID_00000093163576888379760030000018436601451586176685_">
			<use xlink:href="#SVGID_1_"  style="overflow:visible;"/>
		</clipPath>
		<g style="clip-path:url(#SVGID_00000093163576888379760030000018436601451586176685_);">
			<path class="st1" d="M299.3,56.5L442.9-51.7l99.4,131.9L398.7,188.4L299.3,56.5z"/>
			<g id="Layer_2_1_">
				<g>
					<g>
						<defs>
							
								<rect id="SVGID_00000161594539683285976840000013022355047609607842_" x="330.9" y="-14.2" transform="matrix(0.7986 -0.6018 0.6018 0.7986 43.5895 267.0018)" width="179.8" height="165.1"/>
						</defs>
						<clipPath id="SVGID_00000076571760492547569520000017761749028254092958_">
							<use xlink:href="#SVGID_00000161594539683285976840000013022355047609607842_"  style="overflow:visible;"/>
						</clipPath>
						<g id="Layer_1-2" style="clip-path:url(#SVGID_00000076571760492547569520000017761749028254092958_);">
							
								<ellipse transform="matrix(0.7986 -0.6018 0.6018 0.7986 43.8091 266.744)" class="st1" cx="420.5" cy="67.9" rx="63" ry="51.8"/>
							<g>
								<g>
									<defs>
										
											<ellipse id="SVGID_00000181798534086155034830000009928518524958078123_" transform="matrix(0.7986 -0.6018 0.6018 0.7986 43.8094 266.7444)" cx="420.5" cy="67.9" rx="63" ry="51.8"/>
									</defs>
									<clipPath id="SVGID_00000096030364086347406530000009476917793642247047_">
										<use xlink:href="#SVGID_00000181798534086155034830000009928518524958078123_"  style="overflow:visible;"/>
									</clipPath>
									<g style="clip-path:url(#SVGID_00000096030364086347406530000009476917793642247047_);">
										<path class="st1" d="M339.3,65.3l100.5-75.8l62.4,82.8l-100.5,75.8L339.3,65.3z"/>
										<g>
											<g>
												<defs>
													
														<rect id="SVGID_00000057124966395204621260000011142304714853897626_" x="369.6" y="4.9" transform="matrix(0.9336 -0.3584 0.3584 0.9336 3.6855 155.5658)" width="103.7" height="125.9"/>
												</defs>
												<clipPath id="SVGID_00000065041423091506492190000001650445481047306656_">
													<use xlink:href="#SVGID_00000057124966395204621260000011142304714853897626_"  style="overflow:visible;"/>
												</clipPath>
												
													<ellipse transform="matrix(0.7986 -0.6018 0.6018 0.7986 43.8092 266.744)" style="clip-path:url(#SVGID_00000065041423091506492190000001650445481047306656_);fill:#FFFFFF;stroke:#000000;stroke-width:3.9999;stroke-miterlimit:9.9996;" cx="420.5" cy="67.9" rx="63" ry="51.8"/>
											</g>
										</g>
										<g>
											<g>
												<defs>
													
														<rect id="SVGID_00000128472585775010436010000000818962701502255792_" x="357.9" y="17" transform="matrix(0.2756 -0.9613 0.9613 0.2756 238.6816 454.3712)" width="125.9" height="103.7"/>
												</defs>
												<clipPath id="SVGID_00000037673934101492841710000009486924851078801029_">
													<use xlink:href="#SVGID_00000128472585775010436010000000818962701502255792_"  style="overflow:visible;"/>
												</clipPath>
												
													<path style="clip-path:url(#SVGID_00000037673934101492841710000009486924851078801029_);fill:none;stroke:#000000;stroke-width:4;stroke-miterlimit:10;" d="
													M339.3,65.3l100.5-75.8l62.4,82.8l-100.5,75.8L339.3,65.3z"/>
											</g>
										</g>
										
											<ellipse transform="matrix(0.7986 -0.6018 0.6018 0.7986 43.8091 266.744)" class="st7" cx="420.5" cy="67.9" rx="63" ry="51.8"/>
										<path class="st1" d="M339.3,65.3l100.5-75.8l62.4,82.8l-100.5,75.8L339.3,65.3z"/>
										<g>
											<g>
												<defs>
													
														<rect id="SVGID_00000129889907480658744480000014694915268142392981_" x="369.6" y="4.9" transform="matrix(0.9336 -0.3584 0.3584 0.9336 3.6855 155.5658)" width="103.7" height="125.9"/>
												</defs>
												<clipPath id="SVGID_00000040541833338475192320000003352891645150576561_">
													<use xlink:href="#SVGID_00000129889907480658744480000014694915268142392981_"  style="overflow:visible;"/>
												</clipPath>
												
													<ellipse transform="matrix(0.7986 -0.6018 0.6018 0.7986 43.8092 266.744)" style="clip-path:url(#SVGID_00000040541833338475192320000003352891645150576561_);fill:#FFFFFF;stroke:#000000;stroke-width:3.9999;stroke-miterlimit:9.9996;" cx="420.5" cy="67.9" rx="63" ry="51.8"/>
											</g>
										</g>
										<g>
											<g>
												<defs>
													
														<rect id="SVGID_00000125568918177975228950000002732597982132485032_" x="357.9" y="17" transform="matrix(0.2756 -0.9613 0.9613 0.2756 238.6816 454.3712)" width="125.9" height="103.7"/>
												</defs>
												<clipPath id="SVGID_00000160155608461448191570000003468661927348690560_">
													<use xlink:href="#SVGID_00000125568918177975228950000002732597982132485032_"  style="overflow:visible;"/>
												</clipPath>
												
													<path style="clip-path:url(#SVGID_00000160155608461448191570000003468661927348690560_);fill:none;stroke:#000000;stroke-width:4;stroke-miterlimit:10;" d="
													M339.3,65.3l100.5-75.8l62.4,82.8l-100.5,75.8L339.3,65.3z"/>
											</g>
										</g>
										<path class="st10" d="M299.3,56.5L442.9-51.7l99.4,131.9L398.7,188.4L299.3,56.5z"/>
									</g>
								</g>
							</g>
							
								<ellipse transform="matrix(0.7986 -0.6018 0.6018 0.7986 43.8091 266.744)" class="st7" cx="420.5" cy="67.9" rx="63" ry="51.8"/>
							<path d="M392.4,61.3l10-7l12.3,17.5c2.1,2.8,3.7,5.8,4.9,9.1c0.7,2.5,0.5,5.2-0.5,7.6c-1.3,3-3.4,5.5-6.2,7.3
								c-3.3,2.3-6.1,3.6-8.5,4c-2.3,0.4-4.7,0-6.9-1c-2.4-1.2-4.5-2.9-6.1-5.1l8.6-8c0.7,1.1,1.6,2.1,2.6,2.9
								c0.7,0.5,1.5,0.8,2.4,0.8c0.7,0,1.4-0.3,1.9-0.7c1-0.6,1.7-1.8,1.6-3c-0.3-1.7-1-3.4-2.1-4.7L392.4,61.3L392.4,61.3z
								 M422.4,72.4l9.1-7.2c1,1.2,2.3,2.1,3.7,2.6c2,0.6,4.1,0.2,5.8-1.1c1.2-0.8,2.2-1.9,2.6-3.3c0.6-1.8-0.4-3.8-2.2-4.4
								c-0.3-0.1-0.6-0.2-0.9-0.2c-1.2-0.1-3.3,0.4-6.4,1.7c-5.1,2.1-9.1,2.9-12.1,2.6c-2.9-0.3-5.6-1.8-7.2-4.3
								c-1.2-1.7-1.8-3.7-1.9-5.7c0-2.3,0.6-4.6,1.9-6.5c1.9-2.7,4.2-5,7-6.8c4.2-2.9,7.9-4.3,11.1-4.3s6.2,1.5,9,4.6l-9,7.1
								c-1.8-2.3-5.2-2.8-7.5-1l-0.3,0.3c-1,0.6-1.7,1.5-2.1,2.6c-0.3,0.8-0.1,1.7,0.4,2.4c0.4,0.5,1,0.9,1.7,0.9
								c0.8,0.1,2.2-0.3,4.2-1.2c5-2.1,8.8-3.3,11.4-3.7c2.2-0.4,4.5-0.2,6.6,0.7c1.9,0.8,3.5,2.2,4.6,3.9c1.4,2,2.2,4.4,2.3,6.9
								c0.1,2.6-0.6,5.1-2,7.3c-1.8,2.7-4.1,5-6.8,6.8c-5.5,3.8-10,5.4-13.6,4.8C427.9,77.3,424.7,75.3,422.4,72.4L422.4,72.4z"/>
						</g>
					</g>
				</g>
			</g>
		</g>
	</g>
</g>
</svg>
